Coordinates
version=1
nRows=13
nColumns=34
inDegrees=yes

Units are S.I. units (second, meters, Newtons, ...)
If the header above contains a line with 'inDegrees', this indicates whether rotational values are in degrees (yes) or radians (no).

endheader
time	pelvis_tilt	pelvis_list	pelvis_rotation	pelvis_tx	pelvis_ty	pelvis_tz	hip_flexion_r	hip_adduction_r	hip_rotation_r	knee_angle_r	ankle_angle_r	subtalar_angle_r	mtp_angle_r	hip_flexion_l	hip_adduction_l	hip_rotation_l	knee_angle_l	ankle_angle_l	subtalar_angle_l	mtp_angle_l	lumbar_extension	lumbar_bending	lumbar_rotation	arm_flex_r	arm_add_r	arm_rot_r	elbow_flex_r	pro_sup_r	arm_flex_l	arm_add_l	arm_rot_l	elbow_flex_l	pro_sup_l
      0.00000000	      3.64462212	     -1.44939046	   -176.05324976	      0.02479122	      1.11072204	      0.09282950	      9.16659542	      2.13308568	     -2.14454841	      4.91697982	     -7.01708528	     -4.97093259	      0.00000000	     10.08408085	      1.18077537	      8.15028491	     47.52111965	    -17.46521358	    -33.52532918	      0.00000000	    -13.27931701	      3.92013357	     -5.27512344	      7.32006070	    -10.15167490	     10.34544654	     38.80715591	     78.33238255	     -2.25158902	    -12.15195223	      9.97798517	     46.82112145	     79.65734074
      0.00833330	      4.17601407	     -1.95010989	   -176.03614185	      0.02415224	      1.10648514	      0.09491825	      9.64234568	      1.74914543	      1.46850630	      5.11760789	     -7.34063029	     -7.19547561	      0.00000000	     11.44158401	      0.73284010	      4.58008050	     48.25865794	    -17.03069848	    -29.73918491	      0.00000000	    -11.96462628	      2.96843048	     -4.17011366	      5.38860084	     -9.76008099	      7.70296689	     42.49950203	     79.03048675	     -3.79077098	    -12.18190524	      8.94707739	     49.11869539	     79.68713644
      0.01666670	      5.23025997	     -1.51163145	   -176.05658738	      0.02480918	      1.10507022	      0.09593525	     10.61165952	      1.86978911	      1.92959554	      5.69801020	     -5.89961559	     -6.66585603	      0.00000000	     13.29494379	      0.78853922	      4.63490849	     48.72358822	    -17.38401771	    -29.30634087	      0.00000000	    -10.99815698	      3.40544606	     -3.48865595	      4.52403040	     -9.70022086	      5.35127532	     44.94061705	     79.96276797	     -4.70684056	    -11.76894579	      7.31793544	     49.93654113	     79.97539041
      0.02500000	      5.86651248	     -1.15470176	   -175.70302217	      0.02591376	      1.10318321	      0.09702886	     10.89358322	      1.98939873	      1.48644863	      4.98693462	     -5.62198636	     -5.89727565	      0.00000000	     14.94669201	      0.75668450	      4.68413598	     49.45672873	    -16.91031505	    -31.18412950	      0.00000000	    -10.23695663	      3.83337708	     -3.41319487	      3.92319952	     -9.37800784	      2.97706466	     46.33871296	     81.71523157	     -5.91700526	    -11.63092289	      5.85964270	     50.91928281	     80.98751600
      0.03333330	      6.28832450	     -0.94881502	   -175.31912551	      0.02752407	      1.10201779	      0.09764926	     11.00417237	      2.19530641	      1.64057116	      4.58483994	     -5.59760582	     -6.07249596	      0.00000000	     16.38237518	      1.04624972	      5.26690076	     50.38462797	    -15.81143060	    -32.54454030	      0.00000000	    -10.02097721	      4.16174021	     -3.24386399	      3.27625178	     -8.57085680	     -1.37045260	     47.86135393	     94.88451824	     -6.91602072	    -11.15009471	      2.99340210	     51.03373642	     89.20847118
      0.04166670	      6.79812158	     -1.21394896	   -174.95457153	      0.02927520	      1.10167680	      0.09848548	     11.35294722	      1.91082983	      1.62929682	      4.41963970	     -5.33211394	     -5.75185966	      0.00000000	     17.63701041	      1.74131511	      5.35165932	     50.59698441	    -15.35403006	    -34.18169742	      0.00000000	     -9.51785158	      3.88918459	     -3.70749752	      3.26617771	     -8.72707465	     -0.84684259	     48.97228498	     95.30508270	     -8.09178934	    -11.84459416	      3.51706707	     51.14666325	     89.48643691
      0.05000000	      7.23214338	     -1.45064670	   -174.58312299	      0.03094225	      1.10186409	      0.09917826	     11.55222670	      1.63878526	      1.61016802	      4.17954282	     -5.36846682	     -5.81706908	      0.00000000	     18.65844753	      2.28856469	      5.31094284	     50.56899651	    -14.77401998	    -35.00000000	      0.00000000	     -9.11766606	      3.63818053	     -3.80722763	      3.03068583	     -9.00242714	     -0.48490121	     50.05008239	     95.77254853	     -9.04326437	    -12.27139471	      3.55316857	     51.19130957	     89.73106757
      0.05833330	      7.38255879	     -1.63569638	   -174.32532164	      0.03293507	      1.10289433	      0.09982833	     11.53586824	      1.48043651	      1.63802772	      3.99736598	     -5.39723425	     -5.86627180	      0.00000000	     19.21318336	      2.65690583	      5.00322414	     50.16692762	    -13.71940017	    -35.00000000	      0.00000000	     -9.03374685	      3.48337054	     -3.72549007	      3.06050946	     -9.20128320	     -0.35797243	     50.63795111	     95.97788349	     -9.76827105	    -12.68545220	      3.52641994	     51.01718760	     89.83706296
      0.06666670	      7.89008942	     -1.69606171	   -174.01034648	      0.03501716	      1.10376855	      0.10055290	     11.97826926	      1.38934821	      1.77196254	      3.99290476	     -5.36319118	     -6.33204413	      0.00000000	     20.17392342	      2.88469080	      4.66004275	     49.69851206	    -13.20038527	    -35.00000000	      0.00000000	     -8.69553197	      3.45859932	     -3.87454630	      2.73266936	     -9.73709422	      0.46721273	     52.67982520	     96.81732760	    -10.78559061	    -13.19584442	      3.53798494	     51.22064067	     90.24607592
      0.07500000	      7.97031033	     -1.87598978	   -173.76653322	      0.03631816	      1.10595556	      0.10127118	     11.81215397	      1.18987296	      1.69880847	      3.73807806	     -5.52614082	     -6.39914030	      0.00000000	     20.43951965	      3.15108282	      4.18832512	     48.86097532	    -12.31556125	    -35.00000000	      0.00000000	     -8.60577350	      3.28179278	     -3.74239279	      2.64624130	     -9.90238516	      0.65541364	     53.18794528	     97.04686550	    -11.48225011	    -13.65353675	      3.49934497	     51.01926705	     90.35705500
      0.08333330	      8.14584958	     -2.05892217	   -173.53192029	      0.03796241	      1.10783799	      0.10178103	     11.82341425	      0.96677527	      1.75145991	      3.67985326	     -5.67014500	     -6.86171181	      0.00000000	     20.75318698	      3.37186659	      3.60413086	     47.88823575	    -11.93606260	    -35.00000000	      0.00000000	     -8.69610531	      3.18207010	     -3.78608914	      2.40216253	    -10.48098011	      1.68198479	     55.24555922	     97.98288119	    -12.32817030	    -14.26734376	      3.56523787	     51.23941367	     90.79292860
      0.09166670	      8.15972277	     -2.25877555	   -173.31955405	      0.03952929	      1.11000243	      0.10218849	     11.58972215	      0.71855992	      1.66444162	      3.49713748	     -5.99455802	     -7.10399458	      0.00000000	     20.80911237	      3.54049387	      2.91380379	     46.77466195	    -11.61081017	    -35.00000000	      0.00000000	     -8.84398328	      2.96959424	     -3.70301107	      2.28217326	    -10.89556632	      2.28687837	     56.56120374	     98.87905375	    -13.03709759	    -14.83957179	      3.58144159	     51.45505877	     91.20864272
      0.10000000	      8.25769614	     -2.42862368	   -173.11797866	      0.04092107	      1.11211605	      0.10283181	     11.39743189	      0.48077711	      1.44285791	      3.26869813	     -6.40028499	     -7.08774249	      0.00000000	     20.91181399	      3.73636375	      2.26374634	     45.45093355	    -11.09841847	    -35.00000000	      0.00000000	     -8.76370471	      2.79333973	     -3.61588188	      2.28595310	    -11.01628774	      2.42184242	     57.11538283	     99.11159550	    -13.63164727	    -15.27099215	      3.57629158	     51.39804079	     91.31468951
